<svg id="artwork" xmlns="http://www.w3.org/2000/svg" viewBox="0 0 821.86 397.62"><defs><style>.cls-1{fill:#1d2546;}.cls-2{fill:#e30613;}</style></defs><title>Plan de travail 2</title><polygon class="cls-1" points="392.02 253.62 385.21 253.62 385.21 284.56 404.65 284.56 404.65 278.27 392.02 278.27 392.02 253.62"/><path class="cls-1" d="M435.2,252.84c-9.66,0-16.69,6.34-16.69,16.25s7,16.26,16.69,16.26,16.69-6.34,16.69-16.26S444.85,252.84,435.2,252.84Zm0,26.22c-5.81,0-9.61-4.19-9.61-10s3.8-10,9.61-10,9.61,4.19,9.61,10S441,279.05,435.2,279.05Z"/><path class="cls-1" d="M484.18,272.5h5.55v5a13.35,13.35,0,0,1-6.42,1.53c-5.81,0-9.61-4.19-9.61-10s3.8-10,9.61-10c3.45,0,5.68,1,7.52,2.93l4.81-5.24c-3.1-2.88-7.43-4-12.32-4-9.66,0-16.69,6.34-16.69,16.25s7,16.26,16.69,16.26a27.74,27.74,0,0,0,13-3V266.21h-12.1Z"/><rect class="cls-1" x="513.94" y="253.62" width="6.82" height="30.94"/><path class="cls-1" d="M544.48,262.32c0-2.32,2.67-3.19,4.59-3.19a6.6,6.6,0,0,1,4.94,2.05l4.68-5.11a14,14,0,0,0-9.48-3.23c-6.07,0-11.8,3.45-11.8,10,0,10.31,14.51,7.25,14.51,12.93,0,2.18-2.49,3.23-4.72,3.23a7.58,7.58,0,0,1-5.94-2.93l-4.85,5.33a14.69,14.69,0,0,0,10.4,3.89c6.38,0,11.93-3.28,11.93-10.18C558.73,264.33,544.48,268,544.48,262.32Z"/><polygon class="cls-1" points="572.71 259.65 581.54 259.65 581.54 284.56 588.36 284.56 588.36 259.65 597.18 259.65 597.18 253.62 572.71 253.62 572.71 259.65"/><rect class="cls-1" x="612.3" y="253.62" width="6.82" height="30.94"/><path class="cls-1" d="M651.24,279.05c-4.94,0-8.74-4.19-8.74-10s3.8-10,9-10a7.3,7.3,0,0,1,5.86,2.53l5.24-4.28c-2.62-3.36-7-4.54-10.44-4.54-9.66,0-16.69,6.34-16.69,16.25s7,16.26,16.69,16.26A13.5,13.5,0,0,0,663.3,280l-5.68-4.24A7.4,7.4,0,0,1,651.24,279.05Z"/><path class="cls-1" d="M684.54,262.32c0-2.32,2.67-3.19,4.59-3.19a6.6,6.6,0,0,1,4.94,2.05l4.68-5.11a14,14,0,0,0-9.48-3.23c-6.07,0-11.8,3.45-11.8,10,0,10.31,14.51,7.25,14.51,12.93,0,2.18-2.49,3.23-4.72,3.23a7.58,7.58,0,0,1-5.94-2.93l-4.85,5.33a14.69,14.69,0,0,0,10.4,3.89c6.38,0,11.93-3.28,11.93-10.18C698.78,264.33,684.54,268,684.54,262.32Z"/><path class="cls-2" d="M698.78,226.39,644.56,139h0l-.22-.35-7.7-12.41a22.44,22.44,0,0,0-1.84-2.6,28.77,28.77,0,0,0-23-11.38h-2.41a28.77,28.77,0,0,0-23,11.38,22.44,22.44,0,0,0-1.84,2.6l-7.7,12.41h0l-54.93,87.72H629.41L601.68,114.33l69.79,112.06Z"/><path class="cls-1" d="M123.08,156.22v28a42.18,42.18,0,0,0,42.13,42.13h80.67V203.1H165.22a18.89,18.89,0,0,1-18.87-18.87v-28a18.89,18.89,0,0,1,18.87-18.87h80.95V114.09H165.22A42.18,42.18,0,0,0,123.08,156.22Z"/><path class="cls-1" d="M537.64,114.09l-55.26,88.45a6,6,0,0,1-10.25-.09l-53.4-88.36H391.91L452.5,214.35a28.79,28.79,0,0,0,24.54,14h.26a28.8,28.8,0,0,0,24.54-13.59l62.89-100.67Z"/><path class="cls-1" d="M383.31,203.1h-81.4c-10.4,0-18.87-9-18.87-19.4v-.94l70.91-.06c21.92,0,33.75-17.13,33.75-33.24v-2.09l.08,0c0-16.12-11.83-33.24-33.75-33.24H301.91a42.18,42.18,0,0,0-42.13,42.13V183.7c0,23.23,18.9,42.67,42.13,42.67h81.4ZM283,156.22a18.89,18.89,0,0,1,18.87-18.87H354c10.19,0,10.48,9.29,10.48,10.31v1.41c0,1.74-.47,10.42-9.67,10.42H283Z"/></svg>